<svg width="580" height="583" viewBox="0 0 580 583" fill="none" xmlns="http://www.w3.org/2000/svg">
<rect x="3.5" y="3.5" width="502" height="576" stroke="#FFC107" stroke-opacity="0.15" stroke-width="3"/>
<rect x="3.97435" y="579.812" width="501.53" height="573.003" transform="rotate(-90.0472 3.97435 579.812)" stroke="#FFC107" stroke-opacity="0.15" stroke-width="3"/>
<path d="M507 2H2V581H507" stroke="#FFC107" stroke-opacity="0.15" stroke-width="3"/>
<path d="M578.062 76.3084L578.476 578.694" stroke="#FFC107" stroke-opacity="0.15" stroke-width="3"/>
<path d="M71 2V581" stroke="#FFC107" stroke-opacity="0.15" stroke-width="3"/>
<path d="M2.41724 510.526L578.42 510.051" stroke="#FFC107" stroke-opacity="0.15" stroke-width="3"/>
<path d="M144 2V581" stroke="#FFC107" stroke-opacity="0.15" stroke-width="3"/>
<path d="M2.35742 437.904L578.36 437.429" stroke="#FFC107" stroke-opacity="0.15" stroke-width="3"/>
<path d="M218 2V581" stroke="#FFC107" stroke-opacity="0.15" stroke-width="3"/>
<path d="M2.29688 364.287L578.299 363.812" stroke="#FFC107" stroke-opacity="0.15" stroke-width="3"/>
<path d="M291 2V581" stroke="#FFC107" stroke-opacity="0.15" stroke-width="3"/>
<path d="M2.23682 291.665L578.239 291.19" stroke="#FFC107" stroke-opacity="0.15" stroke-width="3"/>
<path d="M360 2V581" stroke="#FFC107" stroke-opacity="0.15" stroke-width="3"/>
<path d="M2.18042 223.022L578.183 222.547" stroke="#FFC107" stroke-opacity="0.15" stroke-width="3"/>
<rect x="434.5" y="3.5" width="144" height="576" stroke="#FFC107" stroke-opacity="0.15" stroke-width="3"/>
<path d="M2.12061 150.4L578.123 149.925" stroke="#FFC107" stroke-opacity="0.15" stroke-width="3"/>
</svg>
